<?xml version="1.0" standalone="no"?>
<!DOCTYPE svg PUBLIC "-//W3C//DTD SVG 20010904//EN"
 "http://www.w3.org/TR/2001/REC-SVG-20010904/DTD/svg10.dtd">
<svg version="1.0" xmlns="http://www.w3.org/2000/svg"
 width="1600.000000pt" height="1200.000000pt" viewBox="0 0 1600.000000 1200.000000"
 preserveAspectRatio="xMidYMid meet">

<g transform="translate(0.000000,1200.000000) scale(0.100000,-0.100000)"
fill="#000000" stroke="none">
<path d="M10890 10715 c-8 -2 -62 -11 -120 -20 -58 -9 -143 -23 -190 -31 -47
-8 -116 -19 -155 -24 -136 -18 -221 -31 -295 -45 -41 -8 -97 -17 -125 -20 -62
-7 -212 -31 -325 -51 -47 -8 -116 -19 -155 -23 -85 -11 -194 -28 -300 -46 -44
-8 -102 -17 -130 -20 -27 -3 -88 -12 -135 -20 -146 -24 -270 -43 -415 -65 -77
-12 -178 -27 -225 -35 -47 -8 -148 -24 -225 -35 -77 -12 -178 -27 -225 -35
-47 -8 -105 -17 -130 -20 -25 -3 -83 -12 -130 -19 -91 -16 -243 -40 -352 -56
-38 -6 -98 -14 -135 -20 -110 -16 -262 -40 -353 -56 -47 -7 -105 -16 -130 -19
-69 -9 -328 -54 -595 -105 -60 -11 -137 -25 -170 -31 -33 -5 -91 -16 -130 -25
-38 -8 -101 -21 -140 -29 -176 -38 -264 -57 -320 -69 -106 -25 -239 -57 -280
-68 -22 -6 -65 -17 -95 -24 -214 -51 -423 -109 -560 -154 -48 -16 -217 -68
-276 -85 -15 -4 -28 -23 -42 -63 -56 -159 -69 -224 -87 -427 -23 -249 -17
-505 20 -825 9 -74 22 -191 30 -260 8 -69 22 -188 30 -265 21 -191 43 -386 60
-535 8 -69 22 -188 30 -265 9 -77 22 -196 30 -265 8 -69 21 -188 30 -265 8
-77 22 -196 30 -265 8 -69 21 -187 30 -263 31 -283 46 -416 60 -537 8 -69 21
-187 30 -263 8 -75 22 -199 30 -275 8 -75 22 -193 30 -262 8 -69 21 -188 30
-265 8 -77 22 -196 30 -265 8 -69 21 -190 30 -270 8 -80 22 -199 30 -265 19
-160 34 -290 45 -405 5 -52 14 -131 19 -175 6 -44 17 -141 26 -215 8 -74 20
-175 26 -225 5 -49 14 -135 19 -190 6 -55 14 -129 19 -165 6 -36 13 -94 16
-130 3 -36 10 -99 15 -140 17 -132 39 -333 45 -402 4 -44 11 -68 21 -72 15 -6
162 14 439 59 50 9 151 24 225 35 74 11 176 27 225 35 90 15 173 27 295 45
113 17 262 41 350 56 47 8 119 19 160 24 42 5 82 11 90 14 8 3 51 10 95 15 44
6 123 17 175 25 52 9 140 23 195 31 55 9 129 21 165 26 36 6 106 17 155 24 50
8 122 19 160 25 39 6 113 17 165 25 91 14 249 39 450 70 52 8 158 24 235 35
77 11 176 27 220 35 44 8 100 17 125 20 42 5 104 18 245 50 33 8 103 24 155
35 180 40 444 112 591 161 48 16 92 29 99 29 7 0 26 6 43 14 42 18 231 86 241
86 5 0 22 6 39 14 18 8 61 27 97 41 103 42 133 55 163 70 16 8 33 15 38 15 18
0 382 183 493 247 60 35 112 63 116 63 13 0 385 253 475 323 237 186 536 486
617 618 10 16 22 29 26 29 5 0 19 23 32 50 13 28 30 56 37 62 35 29 35 46 -2
87 -19 21 -49 70 -66 107 -17 38 -37 76 -45 85 -8 8 -21 35 -29 60 -44 133
-76 214 -117 299 -26 52 -49 104 -51 115 -3 11 -16 52 -30 90 -13 39 -32 97
-42 130 -10 33 -23 78 -30 100 -7 22 -20 69 -30 105 -10 36 -30 108 -45 160
-15 52 -34 127 -43 165 -9 39 -29 126 -45 195 -100 428 -159 797 -226 1425 -9
77 -21 181 -27 230 -6 50 -15 131 -19 180 -5 50 -14 126 -20 170 -12 99 -28
241 -40 365 -5 52 -14 129 -20 170 -11 83 -26 216 -40 360 -5 52 -14 131 -19
175 -6 44 -17 143 -26 220 -9 77 -22 196 -30 265 -8 69 -21 186 -29 260 -9 74
-21 176 -26 225 -6 50 -15 135 -20 190 -6 55 -12 115 -15 133 -7 41 -32 262
-45 397 -5 55 -14 129 -19 165 -5 36 -15 121 -22 190 -6 69 -16 131 -22 138
-9 11 -24 13 -57 7z m-63 -187 c8 -15 17 -76 38 -268 8 -74 22 -196 30 -270 9
-74 23 -196 31 -270 8 -74 21 -191 29 -260 28 -247 45 -402 60 -537 9 -76 22
-194 30 -263 39 -343 58 -517 90 -800 8 -74 22 -196 30 -270 9 -74 22 -196 31
-270 8 -74 21 -191 29 -260 8 -69 21 -186 29 -260 36 -321 70 -591 80 -645 3
-16 15 -88 27 -160 22 -139 69 -388 94 -495 50 -221 80 -346 102 -425 14 -49
29 -103 33 -120 8 -30 45 -159 76 -265 26 -88 84 -259 111 -330 13 -36 30 -81
38 -100 34 -89 122 -294 161 -377 24 -50 44 -98 44 -106 0 -61 -381 -457 -615
-639 -109 -85 -419 -298 -433 -298 -4 0 -31 -16 -61 -35 -29 -19 -55 -35 -58
-35 -2 0 -37 -19 -76 -42 -40 -23 -106 -59 -147 -79 -178 -88 -331 -159 -341
-159 -6 0 -23 -7 -37 -15 -37 -20 -193 -85 -205 -85 -5 0 -23 -7 -40 -15 -38
-17 -70 -28 -282 -99 -151 -51 -245 -80 -360 -111 -27 -8 -81 -23 -120 -33
-38 -11 -88 -23 -110 -27 -22 -3 -53 -10 -70 -15 -16 -5 -70 -18 -120 -28 -49
-11 -124 -27 -165 -36 -41 -9 -102 -21 -135 -26 -33 -6 -116 -20 -185 -31 -69
-11 -168 -27 -220 -34 -225 -32 -315 -45 -330 -50 -16 -5 -156 -26 -331 -50
-52 -7 -104 -15 -115 -19 -10 -3 -68 -13 -129 -22 -224 -32 -293 -42 -425 -64
-74 -12 -178 -28 -230 -35 -52 -7 -122 -17 -155 -23 -119 -21 -202 -34 -295
-47 -226 -32 -316 -46 -334 -51 -11 -4 -63 -12 -115 -20 -205 -27 -317 -44
-331 -50 -8 -3 -62 -12 -120 -20 -164 -23 -278 -40 -363 -54 -67 -12 -79 -12
-92 1 -10 10 -20 61 -31 154 -30 281 -44 403 -59 535 -9 74 -22 194 -30 265
-8 72 -22 193 -30 270 -9 77 -22 196 -30 265 -34 301 -46 403 -60 535 -9 77
-22 196 -30 265 -34 301 -46 403 -60 535 -9 77 -22 199 -31 270 -8 72 -21 189
-29 260 -7 72 -21 191 -30 265 -19 166 -42 374 -60 540 -20 188 -34 306 -45
395 -6 44 -15 121 -20 170 -5 50 -16 153 -25 230 -16 139 -29 259 -60 530 -9
77 -23 201 -31 275 -8 74 -21 191 -29 260 -8 69 -21 188 -29 265 -8 77 -17
154 -21 170 -3 17 -10 77 -16 135 -6 58 -17 161 -25 230 -21 173 -29 579 -15
705 16 136 47 286 68 332 16 32 26 40 83 59 110 37 290 92 395 120 55 14 132
35 170 46 90 25 208 54 420 103 33 8 101 24 150 36 96 22 172 38 299 63 43 8
87 18 98 22 11 3 54 12 96 19 43 8 117 21 166 29 49 8 96 18 106 21 18 6 138
27 277 50 45 7 90 16 100 19 17 5 111 20 323 51 52 7 156 23 230 35 74 12 176
28 225 35 50 7 151 23 225 35 170 27 285 45 425 65 61 8 117 18 125 20 16 5
158 26 331 50 52 7 104 15 115 19 19 6 148 25 335 51 52 7 104 15 115 19 10 3
69 13 129 22 222 32 293 42 425 64 74 12 167 26 205 31 39 5 108 16 155 24
116 19 208 34 320 50 173 25 244 36 320 50 41 8 107 17 145 21 39 4 79 10 90
15 31 12 73 10 82 -3z"/>
</g>
</svg>
