<?xml version="1.0" standalone="no"?>
<!DOCTYPE svg PUBLIC "-//W3C//DTD SVG 20010904//EN"
 "http://www.w3.org/TR/2001/REC-SVG-20010904/DTD/svg10.dtd">
<svg version="1.0" xmlns="http://www.w3.org/2000/svg"
 width="1600.000000pt" height="1200.000000pt" viewBox="0 0 1600.000000 1200.000000"
 preserveAspectRatio="xMidYMid meet">

<g transform="translate(0.000000,1200.000000) scale(0.100000,-0.100000)"
fill="#000000" stroke="none">
<path d="M11236 10392 c-2 -1 -55 -5 -117 -8 -63 -2 -154 -6 -204 -9 -49 -2
-133 -6 -185 -9 -124 -5 -477 -24 -605 -32 -55 -3 -143 -7 -195 -9 -52 -3
-140 -7 -195 -9 -55 -3 -152 -8 -215 -10 -108 -5 -175 -9 -380 -21 -47 -2
-143 -7 -215 -10 -71 -3 -155 -7 -185 -10 -30 -2 -125 -7 -210 -10 -85 -4
-180 -8 -210 -11 -30 -2 -111 -7 -180 -10 -69 -3 -159 -7 -200 -9 -41 -3 -124
-7 -185 -10 -60 -3 -155 -7 -210 -10 -55 -3 -147 -7 -205 -10 -58 -2 -139 -7
-180 -9 -41 -3 -136 -8 -210 -11 -74 -4 -153 -9 -175 -11 -22 -3 -65 -6 -95
-8 -30 -2 -89 -7 -130 -10 -152 -14 -196 -17 -253 -21 -33 -2 -87 -7 -120 -11
-34 -4 -66 -7 -71 -5 -5 1 -41 -3 -80 -8 -39 -6 -96 -13 -126 -16 -69 -7 -122
-12 -185 -21 -27 -3 -63 -7 -80 -9 -16 -1 -48 -5 -70 -9 -53 -9 -189 -26 -245
-32 -25 -2 -52 -7 -60 -10 -8 -3 -37 -8 -65 -10 -27 -2 -70 -9 -95 -14 -25 -5
-76 -14 -115 -20 -97 -15 -243 -43 -370 -70 -22 -5 -56 -12 -75 -15 -98 -17
-107 -22 -136 -83 -49 -102 -62 -136 -80 -202 -10 -36 -21 -69 -24 -75 -4 -5
-10 -32 -14 -60 -3 -27 -13 -84 -21 -125 -46 -234 -49 -299 -48 -1050 1 -393
4 -958 7 -1255 6 -544 12 -1141 21 -2210 3 -319 7 -848 10 -1175 3 -327 8
-813 10 -1080 3 -267 6 -586 7 -710 1 -245 3 -255 58 -245 14 2 93 7 175 10
83 3 179 7 215 10 36 3 119 7 185 10 66 3 161 8 210 11 50 3 137 7 195 10 249
11 290 13 385 18 130 6 471 24 605 32 58 3 148 7 200 10 122 5 279 13 400 19
52 3 138 7 190 9 52 3 138 7 190 10 52 2 145 7 205 11 61 3 146 7 190 10 44 2
150 7 235 10 85 4 178 9 205 11 28 3 86 7 130 9 87 4 183 13 230 20 17 3 59 8
95 11 35 3 67 7 71 10 5 2 41 7 81 10 40 3 87 9 104 15 17 5 39 8 50 7 10 -1
37 1 59 6 112 22 312 59 325 61 8 1 32 7 53 14 20 7 43 11 50 8 6 -2 27 2 46
9 18 8 44 14 58 14 13 0 33 4 43 10 10 5 35 12 54 14 20 3 44 10 55 16 11 5
31 10 44 10 14 0 41 7 61 15 20 8 36 13 36 10 0 -2 22 4 49 15 27 10 51 17 53
14 3 -2 18 2 34 11 16 8 37 15 47 15 9 0 25 4 35 9 9 5 45 17 80 27 35 10 65
21 68 26 3 4 15 8 27 8 13 0 32 7 44 15 12 8 29 16 40 18 10 1 23 5 28 8 6 4
28 12 50 19 46 14 307 126 410 176 133 65 349 182 392 213 24 17 45 30 134 86
9 5 45 30 79 55 34 25 81 59 105 75 39 28 91 71 204 170 26 22 91 85 146 142
85 87 119 126 179 208 6 8 -1 27 -23 57 -17 24 -43 77 -57 118 -13 41 -29 79
-34 85 -6 7 -14 32 -19 56 -21 103 -61 240 -92 319 -18 47 -32 89 -31 94 2 5
-2 23 -9 40 -6 17 -13 45 -15 61 -2 17 -8 41 -13 55 -10 27 -26 120 -22 133 1
5 -4 27 -10 50 -7 23 -13 51 -14 62 -1 11 -8 52 -14 90 -7 39 -14 79 -16 90
-1 11 -8 47 -13 80 -13 70 -18 108 -37 271 -8 67 -20 164 -26 215 -6 52 -11
101 -11 109 0 8 -4 51 -8 95 -5 44 -12 127 -15 185 -3 58 -8 141 -11 185 -6
98 -12 570 -19 1400 -7 881 -15 1666 -21 2165 -6 508 -5 431 -5 575 0 380 -1
414 -13 424 -10 8 -172 12 -180 3z m30 -160 c25 -16 23 97 39 -1807 17 -2048
23 -2542 30 -2600 2 -22 7 -98 10 -170 4 -71 10 -161 14 -200 5 -38 9 -79 9
-90 1 -26 10 -125 18 -195 4 -30 8 -68 10 -85 1 -16 7 -66 14 -110 6 -44 13
-100 16 -125 4 -43 15 -110 34 -210 13 -66 22 -122 26 -150 3 -27 19 -119 33
-190 21 -107 30 -147 40 -171 5 -15 8 -29 5 -32 -2 -2 0 -17 6 -33 7 -16 13
-40 16 -54 9 -60 71 -268 131 -445 69 -202 73 -179 -48 -299 -164 -160 -220
-207 -464 -384 -133 -96 -462 -277 -680 -372 -27 -12 -75 -33 -105 -47 -30
-14 -64 -29 -75 -34 -38 -17 -160 -60 -185 -65 -13 -3 -29 -9 -35 -13 -5 -5
-77 -29 -160 -55 -82 -26 -161 -51 -175 -55 -76 -24 -98 -30 -133 -37 -20 -3
-40 -10 -43 -15 -3 -5 -16 -9 -28 -9 -13 0 -59 -9 -102 -21 -85 -22 -118 -30
-234 -52 -41 -9 -97 -20 -125 -27 -27 -6 -77 -15 -110 -20 -92 -14 -126 -20
-180 -30 -27 -6 -75 -13 -105 -15 -30 -3 -91 -10 -135 -15 -44 -5 -107 -12
-140 -15 -33 -3 -76 -8 -95 -12 -19 -3 -66 -8 -105 -10 -38 -2 -135 -7 -215
-12 -80 -5 -224 -12 -320 -15 -96 -4 -200 -8 -230 -11 -30 -3 -111 -7 -180
-10 -69 -3 -165 -8 -215 -11 -103 -6 -238 -13 -375 -19 -52 -2 -133 -7 -180
-10 -47 -3 -278 -14 -515 -26 -236 -11 -468 -22 -515 -25 -102 -5 -262 -13
-385 -18 -49 -2 -133 -6 -185 -10 -128 -8 -448 -26 -482 -26 -17 0 -31 7 -37
19 -7 12 -13 237 -16 608 -3 323 -7 836 -10 1138 -3 303 -7 816 -10 1140 -3
325 -7 829 -10 1120 -3 292 -7 800 -10 1130 -3 330 -8 818 -10 1085 -8 783 -7
866 10 1035 19 185 26 235 55 364 39 174 84 285 123 300 57 22 317 75 472 95
28 4 66 11 85 16 19 5 76 14 125 20 50 6 113 15 140 20 28 5 95 14 150 20 55
6 123 15 150 20 28 6 75 12 105 14 30 3 96 10 145 15 149 16 286 30 355 36 36
3 88 7 115 10 28 2 93 7 145 10 52 4 115 9 140 12 61 6 278 20 425 27 220 12
299 16 395 22 52 3 140 7 195 9 55 2 125 6 155 9 30 3 120 7 200 11 152 6 473
21 650 31 344 18 445 23 565 28 55 2 138 6 185 10 73 5 298 16 850 41 69 3
157 8 195 11 39 3 115 7 170 10 357 15 549 26 554 30 7 7 45 4 57 -4z"/>
</g>
</svg>
